<svg width="16" height="14" viewBox="0 0 16 14" fill="none" xmlns="http://www.w3.org/2000/svg">
<path d="M5.33337 13V3.66667C5.33337 3.04669 5.33337 2.7367 5.40152 2.48236C5.58646 1.79218 6.12555 1.25308 6.81574 1.06815C7.07007 1 7.38006 1 8.00004 1C8.62002 1 8.93001 1 9.18435 1.06815C9.87453 1.25308 10.4136 1.79218 10.5986 2.48236C10.6667 2.7367 10.6667 3.04669 10.6667 3.66667V13M3.46671 13H12.5334C13.2801 13 13.6535 13 13.9387 12.8547C14.1896 12.7268 14.3936 12.5229 14.5214 12.272C14.6667 11.9868 14.6667 11.6134 14.6667 10.8667V5.8C14.6667 5.05326 14.6667 4.6799 14.5214 4.39468C14.3936 4.1438 14.1896 3.93982 13.9387 3.81199C13.6535 3.66667 13.2801 3.66667 12.5334 3.66667H3.46671C2.71997 3.66667 2.3466 3.66667 2.06139 3.81199C1.8105 3.93982 1.60653 4.1438 1.4787 4.39468C1.33337 4.6799 1.33337 5.05326 1.33337 5.8V10.8667C1.33337 11.6134 1.33337 11.9868 1.4787 12.272C1.60653 12.5229 1.8105 12.7268 2.06139 12.8547C2.3466 13 2.71997 13 3.46671 13Z" stroke="#344054" stroke-width="1.5" stroke-linecap="round" stroke-linejoin="round"/>
</svg>
