<svg width="16" height="14" viewBox="0 0 16 14" fill="none" xmlns="http://www.w3.org/2000/svg">
<path d="M8.66668 6.33333H11.8667C12.6134 6.33333 12.9868 6.33333 13.272 6.47866C13.5229 6.60649 13.7269 6.81046 13.8547 7.06135C14 7.34656 14 7.71993 14 8.46667V13M8.66668 13V3.13333C8.66668 2.3866 8.66668 2.01323 8.52135 1.72801C8.39352 1.47713 8.18955 1.27316 7.93866 1.14532C7.65345 1 7.28008 1 6.53334 1H4.13334C3.38661 1 3.01324 1 2.72802 1.14532C2.47714 1.27316 2.27317 1.47713 2.14533 1.72801C2.00001 2.01323 2.00001 2.3866 2.00001 3.13333V13M14.6667 13H1.33334M4.33334 3.66667H6.33334M4.33334 6.33333H6.33334M4.33334 9H6.33334" stroke="#475467" stroke-width="1.5" stroke-linecap="round" stroke-linejoin="round"/>
</svg>
