<svg width="16" height="12" viewBox="0 0 16 12" fill="none" xmlns="http://www.w3.org/2000/svg">
<path d="M14.6667 4.66671H1.33337M7.33337 7.33337H4.00004M1.33337 3.46671L1.33337 8.53337C1.33337 9.28011 1.33337 9.65348 1.4787 9.93869C1.60653 10.1896 1.8105 10.3935 2.06139 10.5214C2.3466 10.6667 2.71997 10.6667 3.46671 10.6667L12.5334 10.6667C13.2801 10.6667 13.6535 10.6667 13.9387 10.5214C14.1896 10.3936 14.3936 10.1896 14.5214 9.93869C14.6667 9.65348 14.6667 9.28011 14.6667 8.53337V3.46671C14.6667 2.71997 14.6667 2.3466 14.5214 2.06139C14.3936 1.8105 14.1896 1.60653 13.9387 1.4787C13.6535 1.33337 13.2801 1.33337 12.5334 1.33337L3.46671 1.33337C2.71997 1.33337 2.3466 1.33337 2.06139 1.4787C1.8105 1.60653 1.60653 1.8105 1.4787 2.06139C1.33337 2.3466 1.33337 2.71997 1.33337 3.46671Z" stroke="#344054" stroke-width="1.5" stroke-linecap="round" stroke-linejoin="round"/>
</svg>
