<svg width="16" height="16" viewBox="0 0 16 16" fill="none" xmlns="http://www.w3.org/2000/svg">
<path d="M10.6667 5.33334L1.33337 14.6667M12 10H6.00004M4.40004 12.6667H8.89155C9.05461 12.6667 9.13614 12.6667 9.21286 12.6483C9.28089 12.6319 9.34592 12.605 9.40556 12.5684C9.47284 12.5272 9.53049 12.4696 9.64579 12.3543L13 9.00001C13.1593 8.8407 13.239 8.76104 13.3031 8.69052C14.6899 7.16489 14.6899 4.83512 13.3031 3.30949C13.239 3.23897 13.1593 3.15931 13 3.00001C12.8407 2.8407 12.7611 2.76104 12.6906 2.69694C11.1649 1.31017 8.83516 1.31017 7.30953 2.69694C7.239 2.76104 7.15935 2.8407 7.00004 3L3.64579 6.35425C3.53049 6.46955 3.47284 6.5272 3.43161 6.59448C3.39506 6.65413 3.36813 6.71916 3.35179 6.78718C3.33337 6.86391 3.33337 6.94544 3.33337 7.1085V11.6C3.33337 11.9734 3.33337 12.1601 3.40604 12.3027C3.46995 12.4281 3.57194 12.5301 3.69738 12.594C3.83999 12.6667 4.02667 12.6667 4.40004 12.6667Z" stroke="#344054" stroke-width="1.5" stroke-linecap="round" stroke-linejoin="round"/>
</svg>
