<svg width="16" height="16" viewBox="0 0 16 16" fill="none" xmlns="http://www.w3.org/2000/svg">
<path fill-rule="evenodd" clip-rule="evenodd" d="M3.77964 3.33334C3.70543 3.12089 3.66663 2.8956 3.66663 2.66667C3.66663 2.14008 3.87197 1.63268 4.24121 1.25672C4.61086 0.880359 5.11478 0.666672 5.64282 0.666672C6.83929 0.666672 7.58165 1.47898 7.99996 2.1815C8.41827 1.47898 9.16064 0.666672 10.3571 0.666672C10.8851 0.666672 11.3891 0.880359 11.7587 1.25672C12.128 1.63268 12.3333 2.14008 12.3333 2.66667C12.3333 2.8956 12.2945 3.12089 12.2203 3.33334L13.6843 3.33334C13.8243 3.33333 13.9607 3.33331 14.0768 3.34123C14.2037 3.34989 14.3542 3.37021 14.5102 3.43484C14.8369 3.57016 15.0965 3.82973 15.2318 4.15643C15.2964 4.31246 15.3167 4.46294 15.3254 4.58986C15.3333 4.70584 15.3333 4.84229 15.3333 4.98223V5.01779C15.3333 5.15772 15.3333 5.29418 15.3254 5.41016C15.3167 5.53707 15.2964 5.68756 15.2318 5.84359C15.0965 6.17029 14.8369 6.42986 14.5102 6.56518C14.3542 6.62981 14.2037 6.65013 14.0768 6.65879C13.9607 6.6667 13.8243 6.66669 13.6843 6.66668H2.31564C2.17562 6.66669 2.0392 6.6667 1.92315 6.65879C1.79623 6.65013 1.64575 6.62981 1.48972 6.56518C1.16302 6.42986 0.90345 6.17029 0.768125 5.84359C0.703496 5.68756 0.68318 5.53707 0.674521 5.41016C0.666605 5.29415 0.666616 5.15773 0.666627 5.01776V4.9823C0.666616 4.84232 0.666605 4.70587 0.674521 4.58986C0.68318 4.46294 0.703496 4.31246 0.768125 4.15643C0.90345 3.82973 1.16302 3.57016 1.48972 3.43484C1.64575 3.37021 1.79623 3.34989 1.92315 3.34123C2.03917 3.33332 2.17566 3.33333 2.31565 3.33334L3.77964 3.33334ZM5.64282 2.00001C5.47624 2.00001 5.314 2.06727 5.19248 2.191C5.07055 2.31514 4.99996 2.48602 4.99996 2.66667C4.99996 2.84732 5.07055 3.0182 5.19248 3.14234C5.314 3.26607 5.47624 3.33334 5.64282 3.33334H7.08946C7.0412 3.21911 6.98567 3.10078 6.92233 2.98352C6.59842 2.38388 6.18261 2.00001 5.64282 2.00001ZM8.91047 3.33334C8.95872 3.21911 9.01426 3.10078 9.0776 2.98352C9.40151 2.38388 9.81732 2.00001 10.3571 2.00001C10.5237 2.00001 10.6859 2.06727 10.8074 2.191C10.9294 2.31514 11 2.48602 11 2.66667C11 2.84732 10.9294 3.0182 10.8074 3.14234C10.6859 3.26607 10.5237 3.33334 10.3571 3.33334H8.91047Z" fill="#1997D0"/>
<path d="M1.99996 8.66667C1.99996 8.29848 2.29844 8.00001 2.66663 8.00001H6.79996C6.98664 8.00001 7.07999 8.00001 7.15129 8.03634C7.21401 8.0683 7.26501 8.11929 7.29696 8.18201C7.33329 8.25331 7.33329 8.34666 7.33329 8.53334V14.8C7.33329 14.9867 7.33329 15.08 7.29696 15.1513C7.26501 15.2141 7.21401 15.265 7.15129 15.297C7.07999 15.3333 6.98665 15.3333 6.79996 15.3333H4.7742C4.42284 15.3334 4.11962 15.3334 3.86994 15.313C3.60638 15.2914 3.34424 15.2439 3.09198 15.1154C2.71566 14.9236 2.4097 14.6176 2.21795 14.2413C2.08942 13.9891 2.04188 13.7269 2.02034 13.4634C1.99994 13.2136 1.99995 12.9105 1.99996 12.559L1.99996 8.66667Z" fill="#1997D0"/>
<path d="M12.13 15.313C11.8803 15.3334 11.5771 15.3334 11.2256 15.3333H9.19996C9.01328 15.3333 8.91993 15.3333 8.84863 15.297C8.78591 15.2651 8.73492 15.2141 8.70296 15.1513C8.66663 15.08 8.66663 14.9867 8.66663 14.8V8.53334C8.66663 8.34666 8.66663 8.25331 8.70296 8.18201C8.73492 8.11929 8.78591 8.0683 8.84863 8.03634C8.91993 8.00001 9.01328 8.00001 9.19996 8.00001H13.3333C13.7015 8.00001 14 8.29848 14 8.66667V12.5591C14 12.9105 14 13.2136 13.9796 13.4634C13.9581 13.7269 13.9105 13.9891 13.782 14.2413C13.5902 14.6176 13.2843 14.9236 12.9079 15.1154C12.6557 15.2439 12.3935 15.2914 12.13 15.313Z" fill="#1997D0"/>
</svg>
