<svg width="16" height="16" viewBox="0 0 16 16" fill="none" xmlns="http://www.w3.org/2000/svg">
<path fill-rule="evenodd" clip-rule="evenodd" d="M8.00002 0.666664C3.94993 0.666664 0.666687 3.94991 0.666687 8C0.666687 12.0501 3.94993 15.3333 8.00002 15.3333C12.0501 15.3333 15.3334 12.0501 15.3334 8C15.3334 3.94991 12.0501 0.666664 8.00002 0.666664ZM8.00002 4.66666C7.63183 4.66666 7.33335 4.96514 7.33335 5.33333C7.33335 5.70152 7.63183 6 8.00002 6H8.00669C8.37488 6 8.67335 5.70152 8.67335 5.33333C8.67335 4.96514 8.37488 4.66666 8.00669 4.66666H8.00002ZM8.66669 8C8.66669 7.63181 8.36821 7.33333 8.00002 7.33333C7.63183 7.33333 7.33335 7.63181 7.33335 8V10.6667C7.33335 11.0349 7.63183 11.3333 8.00002 11.3333C8.36821 11.3333 8.66669 11.0349 8.66669 10.6667V8Z" fill="#98A2B3"/>
</svg>
