<svg width="36" height="36" viewBox="0 0 36 36" fill="none" xmlns="http://www.w3.org/2000/svg">
<rect width="36" height="36" rx="6" fill="white"/>
<path d="M10.3969 23.0964C10.4351 22.7518 10.4543 22.5795 10.5064 22.4185C10.5527 22.2756 10.618 22.1396 10.7007 22.0142C10.7939 21.8729 10.9165 21.7504 11.1616 21.5052L22.1669 10.5C23.0873 9.57951 24.5797 9.57951 25.5002 10.5C26.4207 11.4205 26.4207 12.9128 25.5002 13.8333L14.4949 24.8386C14.2498 25.0837 14.1272 25.2063 13.9859 25.2995C13.8605 25.3821 13.7246 25.4475 13.5817 25.4937C13.4207 25.5459 13.2484 25.565 12.9038 25.6033L10.0835 25.9167L10.3969 23.0964Z" stroke="#667085" stroke-width="2" stroke-linecap="round" stroke-linejoin="round"/>
</svg>
