<svg width="14" height="12" viewBox="0 0 14 12" fill="none" xmlns="http://www.w3.org/2000/svg">
<path d="M1 3.33331L9 3.33331M9 3.33331C9 4.43788 9.89543 5.33331 11 5.33331C12.1046 5.33331 13 4.43788 13 3.33331C13 2.22874 12.1046 1.33331 11 1.33331C9.89543 1.33331 9 2.22874 9 3.33331ZM5 8.66665L13 8.66665M5 8.66665C5 9.77122 4.10457 10.6666 3 10.6666C1.89543 10.6666 1 9.77122 1 8.66665C1 7.56208 1.89543 6.66665 3 6.66665C4.10457 6.66665 5 7.56208 5 8.66665Z" stroke="#475467" stroke-width="1.5" stroke-linecap="round" stroke-linejoin="round"/>
</svg>
