<svg width="16" height="16" viewBox="0 0 16 16" fill="none" xmlns="http://www.w3.org/2000/svg">
<path d="M5.52861 0.861949C5.78896 0.6016 6.21107 0.6016 6.47141 0.861949L8.00001 2.39054L9.52861 0.861949C9.78896 0.6016 10.2111 0.6016 10.4714 0.861949C10.7318 1.1223 10.7318 1.54441 10.4714 1.80476L8.66668 3.6095V6.84542L11.469 5.22752L12.1295 2.76221C12.2248 2.40657 12.5904 2.19551 12.946 2.29081C13.3017 2.3861 13.5127 2.75166 13.4174 3.1073L12.8579 5.1954L14.946 5.75491C15.3017 5.8502 15.5127 6.21576 15.4174 6.5714C15.3221 6.92705 14.9566 7.1381 14.6009 7.04281L12.1356 6.38223L9.3336 7.99997L12.1356 9.61772L14.6009 8.95715C14.9566 8.86185 15.3221 9.07291 15.4174 9.42855C15.5127 9.78419 15.3017 10.1498 14.946 10.245L12.8579 10.8046L13.4174 12.8927C13.5127 13.2483 13.3017 13.6139 12.946 13.7091C12.5904 13.8044 12.2248 13.5934 12.1295 13.2377L11.469 10.7724L8.66668 9.15452V12.3905L10.4714 14.1953C10.7318 14.4556 10.7318 14.8777 10.4714 15.1381C10.2111 15.3984 9.78896 15.3984 9.52861 15.1381L8.00001 13.6095L6.47141 15.1381C6.21107 15.3984 5.78896 15.3984 5.52861 15.1381C5.26826 14.8777 5.26826 14.4556 5.52861 14.1953L7.33334 12.3905V9.15482L4.53103 10.7727L3.87044 13.2381C3.77515 13.5937 3.40959 13.8048 3.05395 13.7095C2.6983 13.6142 2.48725 13.2486 2.58254 12.893L3.14205 10.8049L1.05395 10.2454C0.698304 10.1501 0.487249 9.78452 0.582543 9.42888C0.677838 9.07323 1.0434 8.86218 1.39904 8.95747L3.86434 9.61805L6.66694 7.99997L3.86477 6.38214L1.39912 7.04281C1.04348 7.1381 0.677919 6.92705 0.582625 6.5714C0.48733 6.21576 0.698385 5.8502 1.05403 5.75491L3.14213 5.1954L2.58263 3.1073C2.48733 2.75166 2.69839 2.3861 3.05403 2.29081C3.40967 2.19551 3.77523 2.40657 3.87053 2.76221L4.53102 5.22719L7.33334 6.84512V3.6095L5.52861 1.80476C5.26826 1.54441 5.26826 1.1223 5.52861 0.861949Z" fill="#475467"/>
</svg>
