<svg width="20" height="20" viewBox="0 0 20 20" fill="none" xmlns="http://www.w3.org/2000/svg">
<path d="M5.20817 18.2994L9.99984 10M14.1665 2.78313C10.5722 0.70795 6.07453 1.61469 3.53817 4.73579C3.29061 5.04042 3.16683 5.19274 3.13082 5.41097C3.10217 5.58461 3.14461 5.81471 3.23332 5.9667C3.34482 6.15773 3.54243 6.27182 3.93766 6.50001L16.062 13.5C16.4572 13.7282 16.6549 13.8423 16.876 13.8433C17.052 13.8442 17.2725 13.7659 17.4086 13.6542C17.5796 13.5139 17.6496 13.3306 17.7896 12.9639C19.2244 9.20676 17.7608 4.85831 14.1665 2.78313ZM14.1665 2.78313C12.5722 1.86265 9.41427 4.34757 7.11309 8.33334M14.1665 2.78313C15.7608 3.7036 15.1878 7.6809 12.8866 11.6667M18.3332 18.3333H1.6665" stroke="#475467" stroke-width="1.66667" stroke-linecap="round" stroke-linejoin="round"/>
</svg>
