<svg width="16" height="16" viewBox="0 0 16 16" fill="none" xmlns="http://www.w3.org/2000/svg">
<path d="M4.66671 12.9333C4.66671 13.8906 5.4129 14.6666 6.33337 14.6666C7.25385 14.6666 8.00004 13.8906 8.00004 12.9333V7.33331M8.00004 7.33331C6.92659 7.33331 5.33337 7.99998 5.33337 7.99998C5.33337 7.99998 4.40682 7.33331 3.33337 7.33331C2.25993 7.33331 1.33337 7.99998 1.33337 7.99998C1.33337 4.31808 4.31814 1.33331 8.00004 1.33331C11.6819 1.33331 14.6667 4.31808 14.6667 7.99998C14.6667 7.99998 13.7402 7.33331 12.6667 7.33331C11.5933 7.33331 10.6667 7.99998 10.6667 7.99998C10.6667 7.99998 9.07349 7.33331 8.00004 7.33331Z" stroke="#344054" stroke-width="1.5" stroke-linecap="round" stroke-linejoin="round"/>
</svg>
