<svg width="16" height="14" viewBox="0 0 16 14" fill="none" xmlns="http://www.w3.org/2000/svg">
<path d="M12 9.55792C12.9706 10.0455 13.8028 10.828 14.4102 11.8064C14.5305 12.0002 14.5906 12.0971 14.6114 12.2312C14.6537 12.5038 14.4672 12.839 14.2133 12.9469C14.0884 13 13.9478 13 13.6667 13M10.6667 6.68816C11.6545 6.19726 12.3333 5.17791 12.3333 4C12.3333 2.82209 11.6545 1.80274 10.6667 1.31184M9.33335 4C9.33335 5.65685 7.9902 7 6.33335 7C4.67649 7 3.33335 5.65685 3.33335 4C3.33335 2.34315 4.67649 1 6.33335 1C7.9902 1 9.33335 2.34315 9.33335 4ZM1.70617 11.6256C2.76904 10.0297 4.44626 9 6.33335 9C8.22043 9 9.89766 10.0297 10.9605 11.6256C11.1934 11.9752 11.3098 12.15 11.2964 12.3733C11.286 12.5471 11.172 12.76 11.0331 12.8651C10.8546 13 10.6092 13 10.1184 13H2.54825C2.05746 13 1.81207 13 1.63364 12.8651C1.49471 12.76 1.38074 12.5471 1.3703 12.3733C1.3569 12.15 1.47332 11.9752 1.70617 11.6256Z" stroke="#344054" stroke-width="1.5" stroke-linecap="round" stroke-linejoin="round"/>
</svg>
