<svg width="16" height="16" viewBox="0 0 16 16" fill="none" xmlns="http://www.w3.org/2000/svg">
<path d="M3.5442 12.9589C3.94975 12.0034 4.89662 11.3333 6 11.3333H10C11.1034 11.3333 12.0503 12.0035 12.4558 12.9589M10.6667 6.33331C10.6667 7.80607 9.47276 8.99998 8 8.99998C6.52724 8.99998 5.33334 7.80607 5.33334 6.33331C5.33334 4.86055 6.52724 3.66665 8 3.66665C9.47276 3.66665 10.6667 4.86055 10.6667 6.33331ZM14.6667 7.99998C14.6667 11.6819 11.6819 14.6666 8 14.6666C4.3181 14.6666 1.33334 11.6819 1.33334 7.99998C1.33334 4.31808 4.3181 1.33331 8 1.33331C11.6819 1.33331 14.6667 4.31808 14.6667 7.99998Z" stroke="#475467" stroke-width="1.5" stroke-linecap="round" stroke-linejoin="round"/>
</svg>
