<svg width="16" height="16" viewBox="0 0 16 16" fill="none" xmlns="http://www.w3.org/2000/svg">
<path d="M10.6667 3.33331L12 4.66665L14.6667 1.99998M14.6667 7.99998V11.4666C14.6667 12.5868 14.6667 13.1468 14.4487 13.5746C14.257 13.951 13.951 14.2569 13.5747 14.4487C13.1469 14.6666 12.5868 14.6666 11.4667 14.6666H4.53337C3.41327 14.6666 2.85322 14.6666 2.42539 14.4487C2.04907 14.2569 1.74311 13.951 1.55136 13.5746C1.33337 13.1468 1.33337 12.5868 1.33337 11.4666V4.53331C1.33337 3.41321 1.33337 2.85316 1.55136 2.42533C1.74311 2.04901 2.04907 1.74305 2.42539 1.5513C2.85322 1.33331 3.41327 1.33331 4.53337 1.33331H8.00004M1.43038 13.2842C1.74314 12.159 2.77508 11.3333 3.99989 11.3333H8.66655C9.28609 11.3333 9.59586 11.3333 9.85346 11.3846C10.9113 11.595 11.7382 12.4219 11.9486 13.4797C11.9999 13.7373 11.9999 14.0471 11.9999 14.6666M9.33337 6.33331C9.33337 7.80607 8.13947 8.99998 6.66671 8.99998C5.19395 8.99998 4.00004 7.80607 4.00004 6.33331C4.00004 4.86055 5.19395 3.66665 6.66671 3.66665C8.13947 3.66665 9.33337 4.86055 9.33337 6.33331Z" stroke="#344054" stroke-width="1.5" stroke-linecap="round" stroke-linejoin="round"/>
</svg>
