<svg width="0" height="0" class="hidden">
  <symbol fill="none" xmlns="http://www.w3.org/2000/svg" viewBox="0 0 16 14" id="activity-icon">
    <path d="M14.6667 7H12L10 13L6.00001 1L4.00001 7H1.33334" stroke="#475467" stroke-width="1.5" stroke-linecap="round" stroke-linejoin="round"></path>
  </symbol>
  <symbol fill="none" xmlns="http://www.w3.org/2000/svg" viewBox="0 0 20 17" id="alert-icon">
    <path d="M10.0001 6.50019V9.83353M10.0001 13.1669H10.0085M8.84622 2.24329L1.99215 14.0821C1.61198 14.7388 1.42189 15.0671 1.44999 15.3366C1.47449 15.5716 1.59763 15.7852 1.78876 15.9242C2.0079 16.0835 2.38728 16.0835 3.14605 16.0835H16.8542C17.613 16.0835 17.9923 16.0835 18.2115 15.9242C18.4026 15.7852 18.5258 15.5716 18.5503 15.3366C18.5783 15.0671 18.3883 14.7388 18.0081 14.0821L11.154 2.24329C10.7752 1.58899 10.5858 1.26184 10.3387 1.15196C10.1232 1.05612 9.87709 1.05612 9.66154 1.15196C9.41443 1.26184 9.22503 1.58899 8.84622 2.24329Z" stroke="#CA8504" stroke-width="1.66667" stroke-linecap="round" stroke-linejoin="round"></path>
  </symbol>
  <symbol fill="none" xmlns="http://www.w3.org/2000/svg" viewBox="0 0 14 16" id="bell-icon">
    <path d="M5.23609 14C5.70618 14.4149 6.32367 14.6667 6.99997 14.6667C7.67627 14.6667 8.29377 14.4149 8.76385 14M11 5.33333C11 4.27246 10.5785 3.25505 9.8284 2.5049C9.07825 1.75476 8.06084 1.33333 6.99997 1.33333C5.93911 1.33333 4.92169 1.75476 4.17154 2.5049C3.4214 3.25505 2.99997 4.27246 2.99997 5.33333C2.99997 7.39345 2.48029 8.80397 1.89975 9.73694C1.41006 10.5239 1.16521 10.9174 1.17419 11.0272C1.18413 11.1487 1.20988 11.1951 1.30782 11.2677C1.39628 11.3333 1.79503 11.3333 2.59254 11.3333H11.4074C12.2049 11.3333 12.6037 11.3333 12.6921 11.2677C12.7901 11.1951 12.8158 11.1487 12.8258 11.0272C12.8347 10.9174 12.5899 10.5239 12.1002 9.73694C11.5197 8.80397 11 7.39345 11 5.33333Z" stroke="#475467" stroke-width="1.5" stroke-linecap="round" stroke-linejoin="round"></path>
  </symbol>
  <symbol fill="none" xmlns="http://www.w3.org/2000/svg" viewBox="0 0 12 12" id="arrow-right-icon">
    <path d="M1.33301 6.00016H10.6663M10.6663 6.00016L5.99967 1.3335M10.6663 6.00016L5.99967 10.6668" stroke="white" stroke-width="1.5" stroke-linecap="round" stroke-linejoin="round"></path>
  </symbol>
  <symbol fill="none" xmlns="http://www.w3.org/2000/svg" viewBox="0 0 8 10" id="arrow-down-icon">
    <path d="M4.5 1C4.5 0.723858 4.27614 0.5 4 0.5C3.72386 0.5 3.5 0.723858 3.5 1V7.79289L1.35355 5.64645C1.15829 5.45118 0.841709 5.45118 0.646447 5.64645C0.451184 5.84171 0.451184 6.15829 0.646447 6.35355L3.64645 9.35355C3.84171 9.54882 4.15829 9.54882 4.35355 9.35355L7.35355 6.35355C7.54882 6.15829 7.54882 5.84171 7.35355 5.64645C7.15829 5.45118 6.84171 5.45118 6.64645 5.64645L4.5 7.79289V1Z" fill="#B42318"></path>
  </symbol>
  <symbol fill="none" xmlns="http://www.w3.org/2000/svg" viewBox="0 0 16 14" id="briefcase-icon">
    <path d="M5.33337 13V3.66667C5.33337 3.04669 5.33337 2.7367 5.40152 2.48236C5.58646 1.79218 6.12555 1.25308 6.81574 1.06815C7.07007 1 7.38006 1 8.00004 1C8.62002 1 8.93001 1 9.18435 1.06815C9.87453 1.25308 10.4136 1.79218 10.5986 2.48236C10.6667 2.7367 10.6667 3.04669 10.6667 3.66667V13M3.46671 13H12.5334C13.2801 13 13.6535 13 13.9387 12.8547C14.1896 12.7268 14.3936 12.5229 14.5214 12.272C14.6667 11.9868 14.6667 11.6134 14.6667 10.8667V5.8C14.6667 5.05326 14.6667 4.6799 14.5214 4.39468C14.3936 4.1438 14.1896 3.93982 13.9387 3.81199C13.6535 3.66667 13.2801 3.66667 12.5334 3.66667H3.46671C2.71997 3.66667 2.3466 3.66667 2.06139 3.81199C1.8105 3.93982 1.60653 4.1438 1.4787 4.39468C1.33337 4.6799 1.33337 5.05326 1.33337 5.8V10.8667C1.33337 11.6134 1.33337 11.9868 1.4787 12.272C1.60653 12.5229 1.8105 12.7268 2.06139 12.8547C2.3466 13 2.71997 13 3.46671 13Z" stroke="#344054" stroke-width="1.5" stroke-linecap="round" stroke-linejoin="round"></path>
  </symbol>
    <symbol fill="none" xmlns="http://www.w3.org/2000/svg" viewBox="0 0 16 14" id="building-icon">
      <path d="M8.66668 6.33333H11.8667C12.6134 6.33333 12.9868 6.33333 13.272 6.47866C13.5229 6.60649 13.7269 6.81046 13.8547 7.06135C14 7.34656 14 7.71993 14 8.46667V13M8.66668 13V3.13333C8.66668 2.3866 8.66668 2.01323 8.52135 1.72801C8.39352 1.47713 8.18955 1.27316 7.93866 1.14532C7.65345 1 7.28008 1 6.53334 1H4.13334C3.38661 1 3.01324 1 2.72802 1.14532C2.47714 1.27316 2.27317 1.47713 2.14533 1.72801C2.00001 2.01323 2.00001 2.3866 2.00001 3.13333V13M14.6667 13H1.33334M4.33334 3.66667H6.33334M4.33334 6.33333H6.33334M4.33334 9H6.33334" stroke="#475467" stroke-width="1.5" stroke-linecap="round" stroke-linejoin="round"></path>
    </symbol>
    <symbol fill="none" xmlns="http://www.w3.org/2000/svg" viewBox="0 0 18 20" id="calendar-icon-2">
      <path d="M12.3333 1.6665V4.99984M5.66667 1.6665V4.99984M1.5 8.33317H16.5M3.16667 3.33317H14.8333C15.7538 3.33317 16.5 4.07936 16.5 4.99984V16.6665C16.5 17.587 15.7538 18.3332 14.8333 18.3332H3.16667C2.24619 18.3332 1.5 17.587 1.5 16.6665V4.99984C1.5 4.07936 2.24619 3.33317 3.16667 3.33317Z" stroke="#667085" stroke-width="1.67" stroke-linecap="round" stroke-linejoin="round"></path>
    </symbol>
    <symbol fill="none" xmlns="http://www.w3.org/2000/svg" viewBox="0 0 14 16" id="calendar-icon">
      <path d="M13 6.66665H1M9.66667 1.33331V3.99998M4.33333 1.33331V3.99998M4.2 14.6666H9.8C10.9201 14.6666 11.4802 14.6666 11.908 14.4487C12.2843 14.2569 12.5903 13.951 12.782 13.5746C13 13.1468 13 12.5868 13 11.4666V5.86665C13 4.74654 13 4.18649 12.782 3.75867C12.5903 3.38234 12.2843 3.07638 11.908 2.88463C11.4802 2.66665 10.9201 2.66665 9.8 2.66665H4.2C3.0799 2.66665 2.51984 2.66665 2.09202 2.88463C1.71569 3.07638 1.40973 3.38234 1.21799 3.75867C1 4.18649 1 4.74654 1 5.86665V11.4666C1 12.5868 1 13.1468 1.21799 13.5746C1.40973 13.951 1.71569 14.2569 2.09202 14.4487C2.51984 14.6666 3.0799 14.6666 4.2 14.6666Z" stroke="#344054" stroke-width="1.5" stroke-linecap="round" stroke-linejoin="round"></path>
    </symbol>
    <symbol fill="none" xmlns="http://www.w3.org/2000/svg" viewBox="0 0 10 6" id="caret-icon">
      <path d="M1 1L5 5L9 1" stroke="#667085" stroke-width="1.5" stroke-linecap="round" stroke-linejoin="round"></path>
    </symbol>
    <symbol fill="none" xmlns="http://www.w3.org/2000/svg" viewBox="0 0 6 10" id="caret-right-icon">
      <path fill-rule="evenodd" clip-rule="evenodd" d="M0.52827 0.528575C0.788619 0.268226 1.21073 0.268226 1.47108 0.528575L5.47108 4.52858C5.73143 4.78892 5.73143 5.21103 5.47108 5.47138L1.47108 9.47138C1.21073 9.73173 0.788619 9.73173 0.52827 9.47138C0.26792 9.21103 0.26792 8.78893 0.52827 8.52858L4.05687 4.99998L0.52827 1.47138C0.26792 1.21103 0.26792 0.788925 0.52827 0.528575Z" fill="#475467"></path>
    </symbol>
    <symbol fill="none" xmlns="http://www.w3.org/2000/svg" viewBox="0 0 16 16" id="clock-icon">
      <path d="M8.00001 3.99998V7.99998L10.6667 9.33331M14.6667 7.99998C14.6667 11.6819 11.6819 14.6666 8.00001 14.6666C4.31811 14.6666 1.33334 11.6819 1.33334 7.99998C1.33334 4.31808 4.31811 1.33331 8.00001 1.33331C11.6819 1.33331 14.6667 4.31808 14.6667 7.99998Z" stroke="#475467" stroke-width="1.5" stroke-linecap="round" stroke-linejoin="round"></path>
    </symbol>
      <symbol fill="none" xmlns="http://www.w3.org/2000/svg" viewBox="0 0 12 12" id="close-icon">
        <path d="M10.1663 1.83331L1.83301 10.1666M1.83301 1.83331L10.1663 10.1666" stroke="#667085" stroke-width="2" stroke-linecap="round" stroke-linejoin="round"></path>
      </symbol>
      <symbol fill="none" xmlns="http://www.w3.org/2000/svg" viewBox="0 0 16 12" id="credit-card-icon">
        <path d="M14.6667 4.66671H1.33337M7.33337 7.33337H4.00004M1.33337 3.46671L1.33337 8.53337C1.33337 9.28011 1.33337 9.65348 1.4787 9.93869C1.60653 10.1896 1.8105 10.3935 2.06139 10.5214C2.3466 10.6667 2.71997 10.6667 3.46671 10.6667L12.5334 10.6667C13.2801 10.6667 13.6535 10.6667 13.9387 10.5214C14.1896 10.3936 14.3936 10.1896 14.5214 9.93869C14.6667 9.65348 14.6667 9.28011 14.6667 8.53337V3.46671C14.6667 2.71997 14.6667 2.3466 14.5214 2.06139C14.3936 1.8105 14.1896 1.60653 13.9387 1.4787C13.6535 1.33337 13.2801 1.33337 12.5334 1.33337L3.46671 1.33337C2.71997 1.33337 2.3466 1.33337 2.06139 1.4787C1.8105 1.60653 1.60653 1.8105 1.4787 2.06139C1.33337 2.3466 1.33337 2.71997 1.33337 3.46671Z" stroke="#344054" stroke-width="1.5" stroke-linecap="round" stroke-linejoin="round"></path>
      </symbol>
      <symbol fill="none" xmlns="http://www.w3.org/2000/svg" viewBox="0 0 16 16" id="feather-icon">
        <path d="M10.6667 5.33334L1.33337 14.6667M12 10H6.00004M4.40004 12.6667H8.89155C9.05461 12.6667 9.13614 12.6667 9.21286 12.6483C9.28089 12.6319 9.34592 12.605 9.40556 12.5684C9.47284 12.5272 9.53049 12.4696 9.64579 12.3543L13 9.00001C13.1593 8.8407 13.239 8.76104 13.3031 8.69052C14.6899 7.16489 14.6899 4.83512 13.3031 3.30949C13.239 3.23897 13.1593 3.15931 13 3.00001C12.8407 2.8407 12.7611 2.76104 12.6906 2.69694C11.1649 1.31017 8.83516 1.31017 7.30953 2.69694C7.239 2.76104 7.15935 2.8407 7.00004 3L3.64579 6.35425C3.53049 6.46955 3.47284 6.5272 3.43161 6.59448C3.39506 6.65413 3.36813 6.71916 3.35179 6.78718C3.33337 6.86391 3.33337 6.94544 3.33337 7.1085V11.6C3.33337 11.9734 3.33337 12.1601 3.40604 12.3027C3.46995 12.4281 3.57194 12.5301 3.69738 12.594C3.83999 12.6667 4.02667 12.6667 4.40004 12.6667Z" stroke="#344054" stroke-width="1.5" stroke-linecap="round" stroke-linejoin="round"></path>
      </symbol>
      <symbol fill="none" xmlns="http://www.w3.org/2000/svg" viewBox="0 0 20 18" id="filter-funnel-icon">
        <path d="M1.66699 2.83333C1.66699 2.36662 1.66699 2.13327 1.75782 1.95501C1.83771 1.79821 1.9652 1.67072 2.122 1.59083C2.30026 1.5 2.53362 1.5 3.00033 1.5H17.0003C17.467 1.5 17.7004 1.5 17.8787 1.59083C18.0355 1.67072 18.1629 1.79821 18.2428 1.95501C18.3337 2.13327 18.3337 2.36662 18.3337 2.83333V3.39116C18.3337 3.61516 18.3337 3.72716 18.3063 3.8313C18.282 3.92359 18.2421 4.01103 18.1882 4.0898C18.1275 4.17869 18.0428 4.25204 17.8736 4.39875L12.5438 9.01792C12.3745 9.16462 12.2898 9.23797 12.2291 9.32687C12.1752 9.40564 12.1353 9.49308 12.111 9.58536C12.0837 9.68951 12.0837 9.80151 12.0837 10.0255V14.382C12.0837 14.5449 12.0837 14.6264 12.0574 14.6969C12.0342 14.7591 11.9964 14.8149 11.9472 14.8596C11.8916 14.9102 11.8159 14.9404 11.6646 15.001L8.83125 16.1343C8.52497 16.2568 8.37182 16.3181 8.24889 16.2925C8.14138 16.2702 8.04704 16.2063 7.98637 16.1148C7.91699 16.0101 7.91699 15.8452 7.91699 15.5153V10.0255C7.91699 9.80151 7.91699 9.68951 7.88962 9.58536C7.86537 9.49308 7.82544 9.40564 7.77158 9.32687C7.71081 9.23797 7.62617 9.16462 7.4569 9.01792L2.12708 4.39875C1.95781 4.25204 1.87318 4.17869 1.8124 4.0898C1.75855 4.01103 1.71862 3.92359 1.69436 3.8313C1.66699 3.72716 1.66699 3.61516 1.66699 3.39116V2.83333Z" stroke="#344054" stroke-width="1.66667" stroke-linecap="round" stroke-linejoin="round"></path>
      </symbol>
      <symbol fill="none" xmlns="http://www.w3.org/2000/svg" viewBox="0 0 16 16" id="gift-icon">
        <path fill-rule="evenodd" clip-rule="evenodd" d="M3.77964 3.33334C3.70543 3.12089 3.66663 2.8956 3.66663 2.66667C3.66663 2.14008 3.87197 1.63268 4.24121 1.25672C4.61086 0.880359 5.11478 0.666672 5.64282 0.666672C6.83929 0.666672 7.58165 1.47898 7.99996 2.1815C8.41827 1.47898 9.16064 0.666672 10.3571 0.666672C10.8851 0.666672 11.3891 0.880359 11.7587 1.25672C12.128 1.63268 12.3333 2.14008 12.3333 2.66667C12.3333 2.8956 12.2945 3.12089 12.2203 3.33334L13.6843 3.33334C13.8243 3.33333 13.9607 3.33331 14.0768 3.34123C14.2037 3.34989 14.3542 3.37021 14.5102 3.43484C14.8369 3.57016 15.0965 3.82973 15.2318 4.15643C15.2964 4.31246 15.3167 4.46294 15.3254 4.58986C15.3333 4.70584 15.3333 4.84229 15.3333 4.98223V5.01779C15.3333 5.15772 15.3333 5.29418 15.3254 5.41016C15.3167 5.53707 15.2964 5.68756 15.2318 5.84359C15.0965 6.17029 14.8369 6.42986 14.5102 6.56518C14.3542 6.62981 14.2037 6.65013 14.0768 6.65879C13.9607 6.6667 13.8243 6.66669 13.6843 6.66668H2.31564C2.17562 6.66669 2.0392 6.6667 1.92315 6.65879C1.79623 6.65013 1.64575 6.62981 1.48972 6.56518C1.16302 6.42986 0.90345 6.17029 0.768125 5.84359C0.703496 5.68756 0.68318 5.53707 0.674521 5.41016C0.666605 5.29415 0.666616 5.15773 0.666627 5.01776V4.9823C0.666616 4.84232 0.666605 4.70587 0.674521 4.58986C0.68318 4.46294 0.703496 4.31246 0.768125 4.15643C0.90345 3.82973 1.16302 3.57016 1.48972 3.43484C1.64575 3.37021 1.79623 3.34989 1.92315 3.34123C2.03917 3.33332 2.17566 3.33333 2.31565 3.33334L3.77964 3.33334ZM5.64282 2.00001C5.47624 2.00001 5.314 2.06727 5.19248 2.191C5.07055 2.31514 4.99996 2.48602 4.99996 2.66667C4.99996 2.84732 5.07055 3.0182 5.19248 3.14234C5.314 3.26607 5.47624 3.33334 5.64282 3.33334H7.08946C7.0412 3.21911 6.98567 3.10078 6.92233 2.98352C6.59842 2.38388 6.18261 2.00001 5.64282 2.00001ZM8.91047 3.33334C8.95872 3.21911 9.01426 3.10078 9.0776 2.98352C9.40151 2.38388 9.81732 2.00001 10.3571 2.00001C10.5237 2.00001 10.6859 2.06727 10.8074 2.191C10.9294 2.31514 11 2.48602 11 2.66667C11 2.84732 10.9294 3.0182 10.8074 3.14234C10.6859 3.26607 10.5237 3.33334 10.3571 3.33334H8.91047Z" fill="#1997D0"></path>
        <path d="M1.99996 8.66667C1.99996 8.29848 2.29844 8.00001 2.66663 8.00001H6.79996C6.98664 8.00001 7.07999 8.00001 7.15129 8.03634C7.21401 8.0683 7.26501 8.11929 7.29696 8.18201C7.33329 8.25331 7.33329 8.34666 7.33329 8.53334V14.8C7.33329 14.9867 7.33329 15.08 7.29696 15.1513C7.26501 15.2141 7.21401 15.265 7.15129 15.297C7.07999 15.3333 6.98665 15.3333 6.79996 15.3333H4.7742C4.42284 15.3334 4.11962 15.3334 3.86994 15.313C3.60638 15.2914 3.34424 15.2439 3.09198 15.1154C2.71566 14.9236 2.4097 14.6176 2.21795 14.2413C2.08942 13.9891 2.04188 13.7269 2.02034 13.4634C1.99994 13.2136 1.99995 12.9105 1.99996 12.559L1.99996 8.66667Z" fill="#1997D0"></path>
        <path d="M12.13 15.313C11.8803 15.3334 11.5771 15.3334 11.2256 15.3333H9.19996C9.01328 15.3333 8.91993 15.3333 8.84863 15.297C8.78591 15.2651 8.73492 15.2141 8.70296 15.1513C8.66663 15.08 8.66663 14.9867 8.66663 14.8V8.53334C8.66663 8.34666 8.66663 8.25331 8.70296 8.18201C8.73492 8.11929 8.78591 8.0683 8.84863 8.03634C8.91993 8.00001 9.01328 8.00001 9.19996 8.00001H13.3333C13.7015 8.00001 14 8.29848 14 8.66667V12.5591C14 12.9105 14 13.2136 13.9796 13.4634C13.9581 13.7269 13.9105 13.9891 13.782 14.2413C13.5902 14.6176 13.2843 14.9236 12.9079 15.1154C12.6557 15.2439 12.3935 15.2914 12.13 15.313Z" fill="#1997D0"></path>
      </symbol>
      <symbol fill="none" xmlns="http://www.w3.org/2000/svg" viewBox="0 0 16 16" id="help-circle-icon">
        <g clip-path="url(#clip0_1725_3823)">
          <path d="M6.06004 6C6.21678 5.55444 6.52614 5.17873 6.93334 4.93942C7.34055 4.7001 7.8193 4.61262 8.28483 4.69247C8.75035 4.77232 9.17259 5.01434 9.47676 5.37568C9.78093 5.73702 9.94741 6.19434 9.94671 6.66666C9.94671 8 7.94671 8.66666 7.94671 8.66666M8.00004 11.3333H8.00671M14.6667 8C14.6667 11.6819 11.6819 14.6667 8.00004 14.6667C4.31814 14.6667 1.33337 11.6819 1.33337 8C1.33337 4.3181 4.31814 1.33333 8.00004 1.33333C11.6819 1.33333 14.6667 4.3181 14.6667 8Z" stroke="#475467" stroke-width="1.5" stroke-linecap="round" stroke-linejoin="round"></path>
        </g>
        <defs>
          <clipPath id="clip0_1725_3823">
            <rect width="16" height="16" fill="white"></rect>
          </clipPath>
        </defs>
      </symbol>
  <symbol fill="none" xmlns="http://www.w3.org/2000/svg" viewBox="0 0 14 15" id="home-icon">
    <path d="M7 10.6667C8.10457 10.6667 9 9.77123 9 8.66666C9 7.56209 8.10457 6.66666 7 6.66666C5.89543 6.66666 5 7.56209 5 8.66666C5 9.77123 5.89543 10.6667 7 10.6667Z" stroke="#101828" stroke-width="1.5" stroke-linecap="round" stroke-linejoin="round"></path>
    <path d="M1 7.04337C1 6.66046 1 6.46901 1.04935 6.2927C1.09307 6.13652 1.16491 5.98963 1.26135 5.85924C1.37022 5.71204 1.52135 5.5945 1.82359 5.35942L6.34513 1.84267C6.57935 1.6605 6.69646 1.56941 6.82577 1.5344C6.93987 1.50351 7.06013 1.50351 7.17423 1.5344C7.30354 1.56941 7.42065 1.6605 7.65487 1.84267L12.1764 5.35942C12.4787 5.5945 12.6298 5.71204 12.7386 5.85924C12.8351 5.98963 12.9069 6.13652 12.9506 6.2927C13 6.46901 13 6.66046 13 7.04337V11.8667C13 12.6134 13 12.9868 12.8547 13.272C12.7268 13.5229 12.5229 13.7268 12.272 13.8547C11.9868 14 11.6134 14 10.8667 14H3.13333C2.3866 14 2.01323 14 1.72801 13.8547C1.47713 13.7268 1.27316 13.5229 1.14532 13.272C1 12.9868 1 12.6134 1 11.8667V7.04337Z" stroke="#101828" stroke-width="1.5" stroke-linecap="round" stroke-linejoin="round"></path>
  </symbol>
  <symbol fill="none" xmlns="http://www.w3.org/2000/svg" viewBox="0 0 16 16" id="info-circle-icon">
    <path fill-rule="evenodd" clip-rule="evenodd" d="M8.00002 0.666664C3.94993 0.666664 0.666687 3.94991 0.666687 8C0.666687 12.0501 3.94993 15.3333 8.00002 15.3333C12.0501 15.3333 15.3334 12.0501 15.3334 8C15.3334 3.94991 12.0501 0.666664 8.00002 0.666664ZM8.00002 4.66666C7.63183 4.66666 7.33335 4.96514 7.33335 5.33333C7.33335 5.70152 7.63183 6 8.00002 6H8.00669C8.37488 6 8.67335 5.70152 8.67335 5.33333C8.67335 4.96514 8.37488 4.66666 8.00669 4.66666H8.00002ZM8.66669 8C8.66669 7.63181 8.36821 7.33333 8.00002 7.33333C7.63183 7.33333 7.33335 7.63181 7.33335 8V10.6667C7.33335 11.0349 7.63183 11.3333 8.00002 11.3333C8.36821 11.3333 8.66669 11.0349 8.66669 10.6667V8Z" fill="#98A2B3"></path>
  </symbol>
  <symbol fill="none" xmlns="http://www.w3.org/2000/svg" viewBox="0 0 36 36" id="pencil-icon">
    <rect width="36" height="36" rx="6" fill="white"></rect>
    <path d="M10.3969 23.0964C10.4351 22.7518 10.4543 22.5795 10.5064 22.4185C10.5527 22.2756 10.618 22.1396 10.7007 22.0142C10.7939 21.8729 10.9165 21.7504 11.1616 21.5052L22.1669 10.5C23.0873 9.57951 24.5797 9.57951 25.5002 10.5C26.4207 11.4205 26.4207 12.9128 25.5002 13.8333L14.4949 24.8386C14.2498 25.0837 14.1272 25.2063 13.9859 25.2995C13.8605 25.3821 13.7246 25.4475 13.5817 25.4937C13.4207 25.5459 13.2484 25.565 12.9038 25.6033L10.0835 25.9167L10.3969 23.0964Z" stroke="#667085" stroke-width="2" stroke-linecap="round" stroke-linejoin="round"></path>
  </symbol>
  <symbol fill="none" xmlns="http://www.w3.org/2000/svg" viewBox="0 0 14 12" id="preferences-icon">
    <path d="M1 3.33331L9 3.33331M9 3.33331C9 4.43788 9.89543 5.33331 11 5.33331C12.1046 5.33331 13 4.43788 13 3.33331C13 2.22874 12.1046 1.33331 11 1.33331C9.89543 1.33331 9 2.22874 9 3.33331ZM5 8.66665L13 8.66665M5 8.66665C5 9.77122 4.10457 10.6666 3 10.6666C1.89543 10.6666 1 9.77122 1 8.66665C1 7.56208 1.89543 6.66665 3 6.66665C4.10457 6.66665 5 7.56208 5 8.66665Z" stroke="#475467" stroke-width="1.5" stroke-linecap="round" stroke-linejoin="round"></path>
  </symbol>
  <symbol fill="none" xmlns="http://www.w3.org/2000/svg" viewBox="0 0 16 16" id="snowflake-icon">
    <path d="M5.52861 0.861949C5.78896 0.6016 6.21107 0.6016 6.47141 0.861949L8.00001 2.39054L9.52861 0.861949C9.78896 0.6016 10.2111 0.6016 10.4714 0.861949C10.7318 1.1223 10.7318 1.54441 10.4714 1.80476L8.66668 3.6095V6.84542L11.469 5.22752L12.1295 2.76221C12.2248 2.40657 12.5904 2.19551 12.946 2.29081C13.3017 2.3861 13.5127 2.75166 13.4174 3.1073L12.8579 5.1954L14.946 5.75491C15.3017 5.8502 15.5127 6.21576 15.4174 6.5714C15.3221 6.92705 14.9566 7.1381 14.6009 7.04281L12.1356 6.38223L9.3336 7.99997L12.1356 9.61772L14.6009 8.95715C14.9566 8.86185 15.3221 9.07291 15.4174 9.42855C15.5127 9.78419 15.3017 10.1498 14.946 10.245L12.8579 10.8046L13.4174 12.8927C13.5127 13.2483 13.3017 13.6139 12.946 13.7091C12.5904 13.8044 12.2248 13.5934 12.1295 13.2377L11.469 10.7724L8.66668 9.15452V12.3905L10.4714 14.1953C10.7318 14.4556 10.7318 14.8777 10.4714 15.1381C10.2111 15.3984 9.78896 15.3984 9.52861 15.1381L8.00001 13.6095L6.47141 15.1381C6.21107 15.3984 5.78896 15.3984 5.52861 15.1381C5.26826 14.8777 5.26826 14.4556 5.52861 14.1953L7.33334 12.3905V9.15482L4.53103 10.7727L3.87044 13.2381C3.77515 13.5937 3.40959 13.8048 3.05395 13.7095C2.6983 13.6142 2.48725 13.2486 2.58254 12.893L3.14205 10.8049L1.05395 10.2454C0.698304 10.1501 0.487249 9.78452 0.582543 9.42888C0.677838 9.07323 1.0434 8.86218 1.39904 8.95747L3.86434 9.61805L6.66694 7.99997L3.86477 6.38214L1.39912 7.04281C1.04348 7.1381 0.677919 6.92705 0.582625 6.5714C0.48733 6.21576 0.698385 5.8502 1.05403 5.75491L3.14213 5.1954L2.58263 3.1073C2.48733 2.75166 2.69839 2.3861 3.05403 2.29081C3.40967 2.19551 3.77523 2.40657 3.87053 2.76221L4.53102 5.22719L7.33334 6.84512V3.6095L5.52861 1.80476C5.26826 1.54441 5.26826 1.1223 5.52861 0.861949Z" fill="#475467"></path>
  </symbol>
  <symbol fill="none" xmlns="http://www.w3.org/2000/svg" viewBox="0 0 16 16" id="speedometer-icon">
    <path d="M3.33337 7.99998C3.33337 5.42265 5.42271 3.33331 8.00004 3.33331M11 4.99998L7.99998 7.99998M14.6667 7.99998C14.6667 11.6819 11.6819 14.6666 8.00004 14.6666C4.31814 14.6666 1.33337 11.6819 1.33337 7.99998C1.33337 4.31808 4.31814 1.33331 8.00004 1.33331C11.6819 1.33331 14.6667 4.31808 14.6667 7.99998ZM8.66671 7.99998C8.66671 8.36817 8.36823 8.66665 8.00004 8.66665C7.63185 8.66665 7.33337 8.36817 7.33337 7.99998C7.33337 7.63179 7.63185 7.33331 8.00004 7.33331C8.36823 7.33331 8.66671 7.63179 8.66671 7.99998Z" stroke="#344054" stroke-width="1.5" stroke-linecap="round" stroke-linejoin="round"></path>
  </symbol>
  <symbol fill="none" xmlns="http://www.w3.org/2000/svg" viewBox="0 0 20 20" id="umbrella-2-icon">
    <path d="M5.20817 18.2994L9.99984 10M14.1665 2.78313C10.5722 0.70795 6.07453 1.61469 3.53817 4.73579C3.29061 5.04042 3.16683 5.19274 3.13082 5.41097C3.10217 5.58461 3.14461 5.81471 3.23332 5.9667C3.34482 6.15773 3.54243 6.27182 3.93766 6.50001L16.062 13.5C16.4572 13.7282 16.6549 13.8423 16.876 13.8433C17.052 13.8442 17.2725 13.7659 17.4086 13.6542C17.5796 13.5139 17.6496 13.3306 17.7896 12.9639C19.2244 9.20676 17.7608 4.85831 14.1665 2.78313ZM14.1665 2.78313C12.5722 1.86265 9.41427 4.34757 7.11309 8.33334M14.1665 2.78313C15.7608 3.7036 15.1878 7.6809 12.8866 11.6667M18.3332 18.3333H1.6665" stroke="#475467" stroke-width="1.66667" stroke-linecap="round" stroke-linejoin="round"></path>
  </symbol>
  <symbol fill="none" xmlns="http://www.w3.org/2000/svg" viewBox="0 0 16 16" id="umbrella-icon">
    <path d="M4.66671 12.9333C4.66671 13.8906 5.4129 14.6666 6.33337 14.6666C7.25385 14.6666 8.00004 13.8906 8.00004 12.9333V7.33331M8.00004 7.33331C6.92659 7.33331 5.33337 7.99998 5.33337 7.99998C5.33337 7.99998 4.40682 7.33331 3.33337 7.33331C2.25993 7.33331 1.33337 7.99998 1.33337 7.99998C1.33337 4.31808 4.31814 1.33331 8.00004 1.33331C11.6819 1.33331 14.6667 4.31808 14.6667 7.99998C14.6667 7.99998 13.7402 7.33331 12.6667 7.33331C11.5933 7.33331 10.6667 7.99998 10.6667 7.99998C10.6667 7.99998 9.07349 7.33331 8.00004 7.33331Z" stroke="#344054" stroke-width="1.5" stroke-linecap="round" stroke-linejoin="round"></path>
  </symbol>
  <symbol fill="none" xmlns="http://www.w3.org/2000/svg" viewBox="0 0 16 14" id="upload-icon">
    <path d="M2.66671 9.82815C1.86272 9.28998 1.33337 8.37347 1.33337 7.33333C1.33337 5.77095 2.52771 4.48753 4.0532 4.34625C4.36525 2.44809 6.01354 1 8.00004 1C9.98655 1 11.6348 2.44809 11.9469 4.34625C13.4724 4.48753 14.6667 5.77095 14.6667 7.33333C14.6667 8.37347 14.1374 9.28998 13.3334 9.82815M5.33337 9.66667L8.00004 7M8.00004 7L10.6667 9.66667M8.00004 7V13" stroke="#344054" stroke-width="1.5" stroke-linecap="round" stroke-linejoin="round"></path>
  </symbol>
  <symbol fill="none" xmlns="http://www.w3.org/2000/svg" viewBox="0 0 16 16" id="user-check-icon">
    <path d="M10.6667 3.33331L12 4.66665L14.6667 1.99998M14.6667 7.99998V11.4666C14.6667 12.5868 14.6667 13.1468 14.4487 13.5746C14.257 13.951 13.951 14.2569 13.5747 14.4487C13.1469 14.6666 12.5868 14.6666 11.4667 14.6666H4.53337C3.41327 14.6666 2.85322 14.6666 2.42539 14.4487C2.04907 14.2569 1.74311 13.951 1.55136 13.5746C1.33337 13.1468 1.33337 12.5868 1.33337 11.4666V4.53331C1.33337 3.41321 1.33337 2.85316 1.55136 2.42533C1.74311 2.04901 2.04907 1.74305 2.42539 1.5513C2.85322 1.33331 3.41327 1.33331 4.53337 1.33331H8.00004M1.43038 13.2842C1.74314 12.159 2.77508 11.3333 3.99989 11.3333H8.66655C9.28609 11.3333 9.59586 11.3333 9.85346 11.3846C10.9113 11.595 11.7382 12.4219 11.9486 13.4797C11.9999 13.7373 11.9999 14.0471 11.9999 14.6666M9.33337 6.33331C9.33337 7.80607 8.13947 8.99998 6.66671 8.99998C5.19395 8.99998 4.00004 7.80607 4.00004 6.33331C4.00004 4.86055 5.19395 3.66665 6.66671 3.66665C8.13947 3.66665 9.33337 4.86055 9.33337 6.33331Z" stroke="#344054" stroke-width="1.5" stroke-linecap="round" stroke-linejoin="round"></path>
  </symbol>
  <symbol fill="none" xmlns="http://www.w3.org/2000/svg" viewBox="0 0 16 16" id="user-round-icon">
    <path d="M3.5442 12.9589C3.94975 12.0034 4.89662 11.3333 6 11.3333H10C11.1034 11.3333 12.0503 12.0035 12.4558 12.9589M10.6667 6.33331C10.6667 7.80607 9.47276 8.99998 8 8.99998C6.52724 8.99998 5.33334 7.80607 5.33334 6.33331C5.33334 4.86055 6.52724 3.66665 8 3.66665C9.47276 3.66665 10.6667 4.86055 10.6667 6.33331ZM14.6667 7.99998C14.6667 11.6819 11.6819 14.6666 8 14.6666C4.3181 14.6666 1.33334 11.6819 1.33334 7.99998C1.33334 4.31808 4.3181 1.33331 8 1.33331C11.6819 1.33331 14.6667 4.31808 14.6667 7.99998Z" stroke="#475467" stroke-width="1.5" stroke-linecap="round" stroke-linejoin="round"></path>
  </symbol>
  <symbol fill="none" xmlns="http://www.w3.org/2000/svg" viewBox="0 0 16 14" id="users-icon">
    <path d="M12 9.55792C12.9706 10.0455 13.8028 10.828 14.4102 11.8064C14.5305 12.0002 14.5906 12.0971 14.6114 12.2312C14.6537 12.5038 14.4672 12.839 14.2133 12.9469C14.0884 13 13.9478 13 13.6667 13M10.6667 6.68816C11.6545 6.19726 12.3333 5.17791 12.3333 4C12.3333 2.82209 11.6545 1.80274 10.6667 1.31184M9.33335 4C9.33335 5.65685 7.9902 7 6.33335 7C4.67649 7 3.33335 5.65685 3.33335 4C3.33335 2.34315 4.67649 1 6.33335 1C7.9902 1 9.33335 2.34315 9.33335 4ZM1.70617 11.6256C2.76904 10.0297 4.44626 9 6.33335 9C8.22043 9 9.89766 10.0297 10.9605 11.6256C11.1934 11.9752 11.3098 12.15 11.2964 12.3733C11.286 12.5471 11.172 12.76 11.0331 12.8651C10.8546 13 10.6092 13 10.1184 13H2.54825C2.05746 13 1.81207 13 1.63364 12.8651C1.49471 12.76 1.38074 12.5471 1.3703 12.3733C1.3569 12.15 1.47332 11.9752 1.70617 11.6256Z" stroke="#344054" stroke-width="1.5" stroke-linecap="round" stroke-linejoin="round"></path>
  </symbol>
</svg>
